<?xml version="1.0" standalone="no"?>
<!DOCTYPE svg PUBLIC "-//W3C//DTD SVG 20010904//EN"
 "http://www.w3.org/TR/2001/REC-SVG-20010904/DTD/svg10.dtd">
<svg version="1.0" xmlns="http://www.w3.org/2000/svg"
 width="3814.000000pt" height="2374.000000pt" viewBox="0 0 3814.000000 2374.000000"
 preserveAspectRatio="xMidYMid meet">
<metadata>
Created by potrace 1.16, written by Peter Selinger 2001-2019
</metadata>
<g transform="translate(0.000000,2374.000000) scale(0.100000,-0.100000)"
fill="#000000" stroke="none">
<path d="M6900 23727 c-23 -11 -57 -118 -387 -1197 -200 -652 -364 -1197 -364
-1212 -1 -15 4 -34 11 -43 11 -13 374 -15 3471 -15 2211 0 3459 -3 3459 -10 0
-16 -3480 -11343 -3496 -11377 -7 -17 -14 -35 -14 -41 0 -23 -117 -319 -171
-432 -33 -69 -71 -147 -84 -175 -13 -27 -43 -80 -67 -116 -41 -63 -65 -102
-132 -208 -15 -25 -47 -69 -70 -98 -22 -28 -62 -80 -87 -115 -56 -76 -279
-318 -377 -408 -125 -115 -261 -227 -342 -282 -14 -9 -56 -39 -95 -65 -38 -27
-97 -64 -130 -83 -33 -18 -69 -41 -80 -50 -33 -29 -280 -150 -445 -219 -192
-81 -559 -189 -710 -211 -514 -73 -820 -76 -1245 -14 -225 34 -642 150 -800
224 -40 18 -163 70 -168 70 -11 0 -346 185 -398 221 -33 21 -87 58 -122 81
-164 109 -384 296 -547 465 -185 192 -281 311 -397 488 -29 44 -61 91 -72 105
-29 38 -181 319 -197 364 -8 21 -23 53 -33 70 -11 17 -44 99 -75 181 -31 83
-61 159 -67 171 -9 18 -32 99 -78 279 -14 58 -59 270 -71 340 -17 99 -40 402
-40 525 0 125 24 429 41 525 5 33 18 98 27 145 12 62 17 135 16 270 0 168 -3
195 -28 295 -65 258 -221 500 -431 670 -81 65 -113 84 -244 145 -275 127 -549
155 -824 85 -104 -27 -325 -123 -393 -171 -74 -53 -168 -132 -216 -182 -114
-120 -255 -377 -297 -542 -36 -142 -98 -600 -117 -855 -18 -260 -15 -685 6
-880 20 -175 91 -668 105 -725 8 -30 21 -89 31 -130 16 -72 62 -251 106 -410
32 -116 183 -526 248 -670 16 -36 50 -112 76 -170 90 -203 275 -535 397 -715
23 -33 77 -114 120 -180 91 -136 267 -362 425 -543 119 -137 465 -481 587
-584 239 -201 468 -372 660 -493 52 -33 122 -78 155 -100 135 -89 563 -314
705 -370 39 -15 87 -36 107 -46 105 -54 764 -279 814 -279 8 0 54 -11 102 -24
111 -30 215 -54 272 -62 25 -3 68 -12 95 -19 48 -13 261 -43 465 -65 344 -38
905 -38 1250 0 181 20 475 61 530 75 30 7 91 21 135 30 44 10 103 23 130 30
28 7 67 16 88 20 67 11 607 182 727 230 63 25 167 70 230 100 63 30 122 55
130 55 14 1 63 26 355 181 66 35 166 94 222 131 57 37 117 75 135 84 18 9 55
34 83 54 27 20 91 65 140 100 228 162 374 277 545 431 220 198 453 435 575
585 49 60 105 127 125 149 54 59 286 382 371 517 181 288 217 352 343 610 73
150 139 291 146 313 7 22 24 63 38 90 25 51 53 126 122 335 106 319 4520
14673 4520 14698 0 16 -7 36 -17 43 -23 20 -9474 26 -9513 6z"/>
<path d="M17420 23727 c-23 -12 -261 -781 -2936 -9477 -1601 -5206 -2909
-9472 -2906 -9480 3 -8 9 -21 15 -28 14 -18 2540 -18 2555 1 6 7 576 1853
1267 4102 691 2250 1260 4105 1266 4123 l11 32 2353 0 2354 0 35 -112 c19 -62
589 -1917 1266 -4123 678 -2206 1236 -4016 1242 -4022 15 -18 2538 -19 2556
-1 7 7 12 25 12 40 0 40 -5808 18920 -5826 18938 -13 13 -209 15 -1627 17
-1288 2 -1617 0 -1637 -10z m2430 -5700 c429 -1396 780 -2540 780 -2543 0 -2
-714 -4 -1586 -4 -1265 0 -1585 3 -1582 13 2 6 360 1167 794 2579 763 2482
789 2566 801 2530 7 -20 363 -1179 793 -2575z"/>
<path d="M21691 23727 c-13 -6 -27 -21 -31 -32 -5 -14 912 -3010 2902 -9480
1600 -5203 2914 -9466 2920 -9472 15 -18 2538 -19 2556 -1 7 7 12 25 12 40 0
16 -562 1859 -1249 4096 -687 2237 -1252 4079 -1256 4095 l-7 27 1218 0 c1166
0 1329 3 1547 30 42 6 114 15 160 20 109 14 443 82 587 120 63 17 116 27 118
23 2 -5 954 -1909 2115 -4233 l2112 -4225 1354 -3 c992 -1 1357 1 1367 9 8 6
14 24 14 39 0 16 -977 1984 -2401 4835 l-2400 4808 123 126 c176 178 301 313
345 370 21 27 76 98 123 157 74 94 122 162 266 374 38 56 147 236 187 310 72
133 170 329 188 375 11 28 33 77 49 110 38 78 129 321 170 455 18 58 43 137
55 175 13 39 35 124 50 190 15 66 34 145 41 175 26 102 78 439 95 615 17 177
22 593 10 826 -10 215 -15 256 -52 485 -10 67 -19 137 -19 157 0 20 -5 48 -11
64 -6 15 -19 73 -30 128 -20 103 -30 144 -75 300 -14 50 -32 114 -40 142 -7
29 -27 88 -43 130 -17 43 -42 116 -56 163 -15 47 -36 101 -47 120 -11 19 -37
77 -58 130 -21 52 -81 178 -133 280 -132 259 -154 298 -264 468 -142 220 -163
251 -172 256 -5 4 -24 28 -42 54 -44 66 -149 198 -249 313 -47 54 -102 119
-124 144 -47 57 -386 377 -479 454 -38 31 -107 86 -155 123 -48 37 -101 78
-118 92 -29 23 -145 102 -309 208 -403 261 -796 446 -1250 587 -224 70 -294
89 -445 121 -47 11 -98 23 -115 29 -47 16 -334 60 -575 88 -121 15 -553 17
-4295 20 -3306 2 -4165 0 -4184 -10z m8237 -2482 c166 -16 236 -27 350 -56 40
-11 82 -19 95 -19 12 -1 47 -10 77 -21 30 -11 92 -31 136 -44 45 -14 110 -38
145 -53 35 -16 77 -32 93 -36 17 -4 41 -15 55 -25 14 -10 37 -22 51 -26 14 -4
36 -15 50 -25 14 -10 36 -21 50 -25 56 -17 390 -244 518 -351 77 -64 290 -279
327 -329 16 -22 40 -52 55 -66 42 -43 87 -104 120 -159 17 -29 48 -78 69 -109
21 -31 59 -96 86 -146 26 -49 51 -94 55 -100 3 -5 23 -48 43 -95 19 -47 43
-98 51 -115 9 -16 16 -36 16 -43 0 -7 7 -27 16 -44 18 -35 101 -327 115 -403
44 -251 53 -343 52 -590 0 -137 -5 -288 -11 -335 -21 -151 -40 -264 -55 -325
-9 -33 -20 -80 -26 -105 -15 -68 -87 -279 -121 -355 -54 -121 -119 -252 -152
-305 -92 -146 -185 -286 -213 -321 -16 -20 -48 -61 -70 -90 -64 -85 -231 -255
-347 -354 -177 -150 -175 -149 -403 -292 -294 -186 -684 -324 -1070 -380 -110
-17 -248 -18 -1719 -18 l-1600 0 -877 2860 c-483 1573 -881 2872 -884 2888
l-7 27 2389 0 c2029 0 2411 -2 2541 -15z"/>
<path d="M16195 3586 c-332 -49 -583 -162 -761 -342 -165 -167 -244 -369 -244
-622 1 -254 66 -423 230 -595 187 -198 417 -298 1029 -452 367 -93 473 -133
594 -230 102 -81 147 -178 147 -317 0 -134 -57 -254 -161 -339 -147 -120 -306
-169 -545 -169 -205 0 -313 27 -432 109 -121 83 -187 173 -291 401 -68 148
-118 218 -188 263 -45 29 -54 31 -143 32 -87 0 -99 -2 -149 -30 -65 -36 -123
-106 -146 -176 -21 -61 -16 -185 11 -284 57 -214 244 -469 441 -603 86 -58
235 -126 357 -162 302 -89 736 -95 1056 -15 470 119 779 419 864 839 18 90 21
308 5 405 -29 180 -132 369 -266 488 -192 170 -440 273 -1008 418 -335 86
-401 107 -508 162 -149 77 -224 162 -244 279 -18 103 17 201 101 284 121 118
276 170 511 170 223 0 361 -44 466 -149 66 -67 94 -107 190 -272 89 -153 112
-183 168 -216 65 -38 186 -44 258 -13 59 25 129 94 165 161 21 39 23 56 22
159 -2 106 -5 122 -36 201 -46 114 -96 187 -193 284 -157 158 -360 260 -628
316 -130 27 -528 36 -672 15z"/>
<path d="M21755 3576 c-100 -42 -166 -130 -196 -261 -20 -88 -21 -2941 0
-3030 29 -132 104 -226 210 -266 85 -31 207 -25 286 16 73 38 134 109 160 190
19 58 20 99 20 1575 0 1476 -1 1517 -20 1575 -26 81 -87 152 -160 190 -50 26
-71 30 -149 33 -78 2 -100 -1 -151 -22z"/>
<path d="M27450 3585 c-430 -56 -763 -208 -1020 -465 -320 -319 -480 -759
-480 -1320 0 -367 64 -658 204 -934 81 -158 167 -277 286 -395 217 -215 478
-352 810 -426 179 -40 299 -49 553 -42 358 10 576 56 876 184 307 131 482 248
539 359 40 78 43 137 40 619 -3 450 -4 461 -25 515 -24 60 -86 127 -141 155
-82 41 -150 47 -606 52 -502 6 -587 0 -673 -49 -95 -54 -133 -119 -133 -231 0
-98 37 -160 120 -202 79 -40 134 -45 485 -45 l335 0 0 -286 0 -285 -112 -54
c-141 -68 -310 -126 -453 -156 -94 -20 -140 -23 -320 -24 -216 0 -248 4 -385
47 -330 105 -560 388 -652 803 -30 137 -31 146 -31 405 -1 262 0 267 31 400
79 340 239 578 485 721 173 101 324 134 572 126 189 -6 276 -27 401 -98 132
-75 208 -155 352 -370 114 -170 187 -221 322 -222 160 -1 290 105 320 260 22
109 -23 264 -117 407 -60 91 -218 249 -308 308 -196 127 -427 209 -684 243
-130 18 -458 18 -591 0z"/>
<path d="M33297 3590 c-139 -35 -253 -150 -293 -295 -18 -67 -19 -125 -22
-1455 -2 -892 1 -1421 7 -1486 13 -123 39 -197 90 -256 58 -66 119 -92 223
-96 77 -4 93 -1 148 24 74 33 130 93 162 173 l23 56 5 1095 5 1095 680 -1043
c374 -574 716 -1091 760 -1149 89 -119 171 -192 255 -225 46 -19 74 -23 180
-23 116 0 129 2 180 27 91 44 141 103 176 208 18 53 19 121 19 1580 0 1500 0
1526 -20 1579 -29 78 -101 154 -173 181 -74 28 -206 25 -267 -7 -81 -43 -137
-117 -167 -225 -8 -31 -13 -334 -17 -1125 l-6 -1082 -626 947 c-345 521 -688
1039 -762 1152 -196 299 -261 352 -432 357 -49 1 -107 -2 -128 -7z"/>
<path d="M2670 3540 c-179 -19 -280 -88 -325 -224 -33 -102 -36 -251 -32
-1596 3 -1134 6 -1334 19 -1385 39 -156 120 -238 263 -264 91 -17 1278 -14
1420 3 360 45 610 165 828 396 215 229 351 527 408 893 29 192 37 584 15 765
-62 506 -246 878 -556 1127 -204 163 -409 239 -740 275 -126 14 -1191 22
-1300 10z m918 -560 c320 -18 481 -58 617 -156 192 -137 307 -366 351 -698 23
-180 16 -564 -14 -716 -91 -460 -304 -713 -652 -776 -54 -10 -185 -13 -477
-14 l-403 0 0 1185 0 1185 203 0 c111 0 280 -5 375 -10z"/>
<path d="M9305 3540 c-238 -26 -331 -123 -355 -372 -12 -122 -12 -2613 0
-2744 16 -183 78 -284 206 -335 l59 -24 1105 0 c1237 0 1134 -6 1222 73 54 49
79 105 79 184 1 97 -13 138 -70 201 -43 47 -111 76 -208 87 -52 6 -417 10
-895 10 l-808 0 0 495 0 494 803 3 c866 3 819 0 894 56 71 53 102 151 82 260
-23 123 -101 184 -260 202 -46 6 -403 10 -801 10 l-718 0 0 435 0 434 868 3
867 3 47 23 c88 44 148 140 148 237 0 55 -30 135 -66 174 -45 50 -115 80 -217
91 -96 11 -1878 11 -1982 0z"/>
</g>
</svg>
